<svg width="266" height="81" viewBox="0 0 266 81" fill="none" xmlns="http://www.w3.org/2000/svg">
<path d="M46.1936 0.251953H3.68464C1.65017 0.251953 0 1.90742 0 3.94841V12.5569C0 14.5978 1.65017 16.2533 3.68464 16.2533H49.8782V3.94841C49.8782 1.90742 48.2281 0.251953 46.1936 0.251953Z" fill="black"/>
<path d="M15.9366 35.9466V44.5551C15.9366 46.5961 17.5868 48.2515 19.6213 48.2515H49.876V32.2524H19.6213C17.5868 32.2524 15.9366 33.9079 15.9366 35.9489V35.9466Z" fill="black"/>
<path d="M62.1415 16.251H49.876V32.2501H62.1415C64.176 32.2501 65.8262 30.5947 65.8262 28.5537V19.9452C65.8262 17.9042 64.176 16.2488 62.1415 16.2488V16.251Z" fill="black"/>
<path d="M0 67.947V76.5554C0 78.5964 1.65017 80.2518 3.68464 80.2518H46.1936C48.2281 80.2518 49.8782 78.5964 49.8782 76.5554V64.2505H3.68464C1.65017 64.2505 0 65.906 0 67.947Z" fill="black"/>
<path d="M62.1415 48.2537H49.876V64.2528H62.1415C64.176 64.2528 65.8262 62.5974 65.8262 60.5564V51.9479C65.8262 49.9069 64.176 48.2515 62.1415 48.2515V48.2537Z" fill="black"/>
<path d="M132.202 15.0945C124.258 15.0945 118.896 18.8386 116.694 23.4489C114.78 18.5528 110.186 15.0945 103.294 15.0945C97.1682 15.0945 92.9726 17.208 90.0069 21.5281L89.982 16.2465H80.7048V64.2597H89.9888V32.8602C89.9888 30.0753 91.0422 27.5785 93.1467 25.5625C95.3484 23.4489 98.0294 22.3944 101.187 22.3944C107.408 22.3944 111.663 26.3313 111.663 32.0937V64.2619H120.946V32.6697C120.946 26.9073 124.543 22.3944 130.572 22.3944C136.601 22.3944 140.048 25.7553 140.048 32.3817V64.2619H149.332V32.0937C149.332 21.4352 143.398 15.0968 132.197 15.0968L132.202 15.0945Z" fill="black"/>
<path d="M197.266 32.1866C197.266 21.3354 190.184 15.0945 177.642 15.0945C165.101 15.0945 158.116 21.7209 158.116 30.9394H167.018C167.018 25.8505 170.368 22.3922 177.642 22.3922C184.438 22.3922 187.885 25.9457 187.885 31.8034V36.0282H175.92C163.955 36.0282 156.776 41.1171 156.776 50.3356C156.776 59.5541 163.381 65.2189 173.623 65.2189C181.375 65.2189 187.019 60.9963 188.841 56.1025C188.846 64.4456 197.266 64.2075 197.266 64.2075C197.266 64.2075 202.146 64.2075 202.146 64.1622V58.1118L197.286 58.1004L197.264 32.1844L197.266 32.1866ZM187.862 45.4168C187.501 52.5829 182.5 57.9235 174.485 57.9235C168.838 57.9235 165.967 55.0435 165.967 50.3378C165.967 45.249 169.317 42.6569 175.922 42.6569H192.58L187.864 45.4191L187.862 45.4168Z" fill="black"/>
<path d="M218.888 16.2283H209.604V64.2414H218.888V16.2283Z" fill="black"/>
<path d="M265 50.6054C264.521 44.3646 262.382 41.2849 257.439 39.0262C255.619 38.1622 254.186 37.6429 253.132 37.3549C252.079 37.0669 250.451 36.5861 248.347 36.1076L247.198 35.8196C240.403 34.1868 237.148 32.7468 237.148 28.9052C237.148 24.7756 240.498 22.4715 245.476 22.4715C252.081 22.4715 255.431 24.4876 255.526 29.962H264.333C264.333 19.6867 256.964 15.0786 245.573 15.0786C240.595 15.0786 236.384 16.3259 232.842 18.825C229.395 21.3218 227.672 24.7779 227.672 29.1002C227.385 32.6538 229.013 35.2459 230.543 37.0691C231.404 38.2212 234.282 39.9787 237.449 41.0513C239.323 41.6863 240.894 42.1807 243.179 42.6388L245.858 43.2148C252.271 44.7523 255.718 46.3829 255.718 50.6077C255.718 54.8326 251.984 57.8101 246.147 57.8101C239.352 57.8101 235.905 55.6989 235.523 49.8412H226.334C226.334 59.8285 233.321 65.2053 246.052 65.2053C257.251 65.2053 265.004 59.5404 265.004 50.61L265 50.6054Z" fill="black"/>
</svg>
