<svg width="39" height="70" viewBox="0 0 39 70" fill="none" xmlns="http://www.w3.org/2000/svg">
<path d="M38.5405 28.0984C38.3341 29.7821 38.1571 31.326 37.9448 32.8699C37.6322 35.1537 37.2666 37.4317 36.9835 39.7155C36.8596 40.7001 36.4822 41.1487 35.397 41.1195C32.7252 41.0554 30.0476 41.0904 27.37 41.1021C26.8392 41.1021 26.3143 41.1836 25.5358 41.2419C25.5358 42.978 25.5417 44.621 25.5358 46.2639C25.5004 53.0803 25.4591 59.8909 25.4119 66.7074C25.406 67.2026 25.3647 67.6978 25.3647 68.193C25.3647 68.9678 25.0168 69.2591 24.2088 69.2475C20.5698 69.2125 16.9367 69.2125 13.2977 69.2475C12.4897 69.2533 12.1359 68.962 12.13 68.193C12.1241 67.7793 12.0946 67.3657 12.0946 66.9579C12.0002 58.9063 11.9118 50.8548 11.8233 42.8032C11.8056 41.2186 11.8115 41.2186 10.1601 41.2127C7.27605 41.2011 4.39201 41.172 1.50796 41.1953C0.422761 41.2069 -0.0490662 40.8981 0.00401441 39.698C0.163256 36.0684 0.222235 32.4388 0.269417 28.8034C0.281213 27.9644 0.605594 27.7547 1.39001 27.7605C4.43919 27.7896 7.49427 27.7139 10.5435 27.8013C11.7525 27.8362 12.0238 27.3935 12.012 26.3098C11.9766 22.9657 11.953 19.6216 12.0533 16.2774C12.3128 7.45104 17.6268 1.70078 26.4322 0.459839C30.2246 -0.0761535 33.9933 -0.14024 37.7856 0.250103C38.5523 0.325841 39.0241 0.523925 38.9887 1.43278C38.8649 4.77108 38.7882 8.11521 38.7056 11.4593C38.6821 12.3449 38.3813 12.7527 37.355 12.7469C34.7305 12.7411 32.0824 12.6886 29.4873 13.0149C26.9866 13.3295 25.7009 15.153 25.6714 17.6116C25.636 20.5421 25.6006 23.4726 25.5063 26.403C25.4768 27.3527 25.6832 27.8304 26.7861 27.8362C30.3366 27.8479 33.8871 27.9469 37.4435 28.0168C37.7325 28.0227 38.0215 28.0576 38.5405 28.0984Z" fill="#0F2027"/>
</svg>
