<svg width="64" height="63" viewBox="0 0 64 63" fill="none" xmlns="http://www.w3.org/2000/svg">
<path d="M45.9408 62.5467C36.4217 62.5467 26.9085 62.5467 17.3894 62.5467C17.3127 62.5292 17.236 62.5059 17.1534 62.5C15.4254 62.3952 13.7504 62.034 12.1285 61.4397C8.92006 60.2629 6.23654 58.3636 4.11332 55.7186C1.52417 52.5026 0.132273 48.8264 0.120477 44.7074C0.0850901 35.8053 0.108683 26.8974 0.114581 17.9952C0.114581 16.7135 0.279722 15.4493 0.580511 14.2025C1.53596 10.2292 3.60611 6.93164 6.79094 4.33325C10.0878 1.64163 13.8978 0.220089 18.1856 0.202611C27.1444 0.167655 36.1032 0.190959 45.0561 0.190959C46.796 0.190959 48.5005 0.441477 50.1636 0.948339C54.7581 2.35241 58.2791 5.11976 60.7385 9.19213C62.0124 11.3011 62.785 13.5908 63.0858 16.0319C63.1389 16.4397 63.1802 16.8533 63.2274 17.2611C63.2274 26.6643 63.2274 36.0617 63.2274 45.4648C63.2097 45.5406 63.1861 45.6163 63.1802 45.6979C63.0622 47.5272 62.673 49.2983 61.977 50.9937C60.0838 55.637 56.8105 58.9928 52.1866 61.0435C50.5883 61.7543 48.9074 62.2029 47.1675 62.401C46.7547 62.4476 46.3477 62.5001 45.9408 62.5467ZM31.6621 4.99158C27.339 4.99158 23.0218 4.98576 18.6987 4.99158C18.1148 4.99158 17.5368 5.02654 16.9529 5.07897C15.101 5.25375 13.3493 5.77809 11.7569 6.72191C7.32764 9.34361 5.00389 13.2296 4.96851 18.3215C4.90363 27.0197 4.95081 35.7121 4.95081 44.4103C4.95081 45.4415 5.06287 46.4669 5.29878 47.4748C6.69657 53.4756 12.1285 57.7402 18.4038 57.746C27.2387 57.7519 36.0737 57.7519 44.9087 57.746C46.967 57.746 48.9487 57.3499 50.777 56.4119C55.6958 53.8892 58.285 49.8518 58.3381 44.3928C58.4147 35.7121 58.3616 27.0313 58.3558 18.3506C58.3558 17.267 58.2319 16.2008 57.9783 15.1463C56.5687 9.26204 51.1663 5.00906 45.0502 4.99741C40.5974 4.98576 36.1268 4.99158 31.6621 4.99158Z" fill="#0F2027"/>
<path d="M48.6595 31.3718C48.6772 40.6119 40.9746 48.1857 31.5911 48.1565C22.2784 48.1274 14.6702 40.5769 14.6702 31.3194C14.6702 22.1143 22.3905 14.424 31.945 14.5754C41.122 14.7211 48.6772 22.1959 48.6595 31.3718ZM31.6737 43.3617C38.3854 43.3559 43.8056 37.996 43.8056 31.366C43.8056 24.6894 38.3795 19.3761 31.5734 19.3819C24.9325 19.3877 19.5183 24.7768 19.53 31.3835C19.5359 38.0135 24.962 43.3676 31.6737 43.3617Z" fill="#0F2027"/>
<path d="M48.6595 12.1864C48.6595 10.8465 49.7388 9.78613 51.0953 9.78613C52.4341 9.78613 53.5134 10.8523 53.5134 12.1806C53.5134 13.5148 52.4282 14.5809 51.0776 14.5809C49.7388 14.5809 48.6595 13.509 48.6595 12.1864Z" fill="#0F2027"/>
</svg>
