<svg width="60" height="55" viewBox="0 0 60 55" fill="none" xmlns="http://www.w3.org/2000/svg">
<path d="M10.1391 0.759277C11.3718 1.34188 11.7846 2.29734 11.7138 3.63732C11.6195 5.54242 11.708 7.45918 11.6785 9.37011C11.6608 10.7742 10.9589 11.4791 9.53163 11.4966C7.08402 11.5257 4.63051 11.5257 2.17699 11.4966C0.74971 11.4791 0.0596625 10.78 0.0419689 9.36428C0.0124796 7.45335 0.100942 5.5366 0.00657597 3.6315C-0.0583006 2.29734 0.348661 1.33605 1.59311 0.759277C4.44768 0.759277 7.29044 0.759277 10.1391 0.759277Z" fill="#0F2027"/>
<path d="M19.6818 36.123C19.6818 30.7573 19.6759 25.3974 19.6818 20.0316C19.6877 18.0042 20.3188 17.3983 22.4066 17.3924C24.3057 17.3866 26.1989 17.375 28.098 17.3983C29.7848 17.4157 30.5044 18.1498 30.5456 19.8335C30.5574 20.4278 30.5162 21.0279 30.5633 21.6221C30.5928 21.9775 30.7521 22.3212 30.8582 22.6708C31.218 22.4902 31.6132 22.3678 31.9198 22.129C33.2292 21.0978 34.3969 19.8394 35.8183 19.0062C41.6985 15.5747 47.7496 15.4582 53.7537 18.6683C57.4752 20.6608 59.162 24.0632 59.4923 28.089C59.7518 31.2641 59.7989 34.4568 59.8343 37.6436C59.8874 42.4967 59.852 47.3497 59.8461 52.2028C59.8402 54.2303 59.1915 54.8653 57.139 54.8769C55.0276 54.8886 52.9162 54.8944 50.8047 54.8769C48.8643 54.8595 48.192 54.1662 48.1743 52.2436C48.1094 46.0272 48.0386 39.8167 47.9679 33.6004C47.9679 33.3848 47.9561 33.1751 47.9443 32.9595C47.7437 28.491 45.8505 25.9916 42.1644 25.3449C38.3957 24.6808 33.8779 26.8597 32.6866 30.4369C31.8314 33.0119 31.5483 35.8317 31.4244 38.5641C31.218 43.0676 31.3477 47.5886 31.3359 52.0979C31.3301 54.2594 30.699 54.8711 28.4696 54.8769C26.3995 54.8828 24.3352 54.8944 22.2651 54.8711C20.3719 54.8536 19.6877 54.1836 19.6818 52.3368C19.6759 46.9361 19.6818 41.5296 19.6818 36.123Z" fill="#0F2027"/>
<path d="M11.6902 36.1056C11.6902 41.5122 11.6961 46.9187 11.6902 52.3252C11.6902 54.1721 11.0001 54.8537 9.11871 54.8712C6.91883 54.8887 4.72484 54.8945 2.52496 54.8712C0.732026 54.8479 0.0478804 54.1488 0.0478804 52.366C0.0419826 41.5529 0.0419826 30.7399 0.0478804 19.9268C0.0478804 18.0625 0.720236 17.4042 2.61933 17.3925C4.8605 17.3809 7.10166 17.375 9.34283 17.3983C10.9765 17.4158 11.6902 18.1324 11.6902 19.7637C11.6961 25.2052 11.6902 30.6583 11.6902 36.1056Z" fill="#0F2027"/>
</svg>
