<svg width="229" height="277" viewBox="0 0 229 277" fill="none" xmlns="http://www.w3.org/2000/svg">
<path d="M160.495 0H12.804C5.7236 0 0 5.72211 0 12.8007V42.6118C0 49.6748 5.7236 55.4125 12.804 55.4125H173.299V12.8007C173.299 5.7377 167.575 0 160.495 0Z" fill="black"/>
<path d="M55.3643 123.579V153.39C55.3643 160.453 61.0879 166.191 68.1683 166.191H173.283V110.794H68.1683C61.1034 110.794 55.3643 116.516 55.3643 123.594V123.579Z" fill="black"/>
<path d="M215.89 55.3968H173.283V110.794H215.89C222.955 110.794 228.694 105.072 228.694 97.993V68.1819C228.694 61.1189 222.971 55.3812 215.89 55.3812V55.3968Z" fill="black"/>
<path d="M0 234.388V264.199C0 271.262 5.7236 277 12.804 277H160.495C167.559 277 173.299 271.278 173.299 264.199V221.603H12.804C5.73919 221.603 0 227.325 0 234.404V234.388Z" fill="black"/>
<path d="M215.89 166.191H173.283V221.588H215.89C222.955 221.588 228.694 215.865 228.694 208.787V178.976C228.694 171.913 222.971 166.175 215.89 166.175V166.191Z" fill="black"/>
</svg>
